<svg xmlns="http://www.w3.org/2000/svg" width="24" height="25" viewBox="0 0 24 25" fill="none">
    <path d="M17.144 8.10646L14.3991 9.69123C14.353 9.71786 14.2981 9.72499 14.2467 9.71105L6.3232 7.56192C6.2204 7.53404 6.11073 7.5483 6.01849 7.60156L5.04504 8.16358C4.91376 8.23937 4.91123 8.42796 5.04043 8.50725L10.0598 11.5875C10.303 11.7368 10.3162 12.0855 10.0848 12.2527L6.79357 14.6309C6.67204 14.7187 6.51162 14.7312 6.37798 14.6632L4.03387 13.4712C3.97355 13.4405 3.90181 13.4424 3.84321 13.4763L3.19274 13.8518C3.08914 13.9116 3.06087 14.0484 3.13228 14.1444L5.57624 17.4294C5.63412 17.5072 5.73693 17.5335 5.82348 17.4898C6.65829 17.068 10.8537 14.9284 13.4876 13.2142C16.4233 11.3036 19.8643 9.80216 20.7109 7.77913C20.2109 6.9131 17.144 8.10646 17.144 8.10646Z" fill="#797882" stroke="#797882"/>
    <path d="M3 22L21 22" stroke="#797882" stroke-linecap="round"/>
</svg>