<svg xmlns="http://www.w3.org/2000/svg" width="24" height="24" viewBox="0 0 24 24" fill="none">
    <path d="M6 9.40328V17C6 17.5523 6.44772 18 7 18H8C8.55228 18 9 17.5523 9 17V13.6429C9 13.0906 9.44772 12.6429 10 12.6429H14C14.5523 12.6429 15 13.0906 15 13.6429V17C15 17.5523 15.4477 18 16 18H17C17.5523 18 18 17.5523 18 17V9.40328C18 8.84432 17.7661 8.31087 17.355 7.93219L13.355 4.24798C12.5893 3.54277 11.4107 3.54277 10.645 4.24798L6.64505 7.93219C6.23391 8.31087 6 8.84432 6 9.40328Z" fill="#797882" stroke="#797882" stroke-width="2"/>
</svg>