<svg width="25" height="24" viewBox="0 0 25 24" fill="none" xmlns="http://www.w3.org/2000/svg">
<path fill-rule="evenodd" clip-rule="evenodd" d="M15.266 8.19697C17.2186 10.1496 17.2186 13.3154 15.266 15.268C13.3134 17.2207 10.1476 17.2207 8.19493 15.268C6.24231 13.3154 6.24231 10.1496 8.19493 8.19697C10.1476 6.24435 13.3134 6.24435 15.266 8.19697ZM17.3372 15.925C19.3928 13.1832 19.1738 9.27635 16.6802 6.78276C13.9465 4.04909 9.51439 4.04908 6.78072 6.78276C4.04705 9.51643 4.04705 13.9486 6.78072 16.6822C9.27431 19.1758 13.1812 19.3948 15.923 17.3392L18.8015 20.2178C19.1921 20.6083 19.8252 20.6083 20.2157 20.2178C20.6063 19.8273 20.6063 19.1941 20.2157 18.8036L17.3372 15.925Z" fill="white"/>
</svg>
