<svg width="24" height="24" viewBox="0 0 24 24" fill="none" xmlns="http://www.w3.org/2000/svg">
<path d="M12 11C12.7145 11 13.239 10.5656 13.5392 10.1154C13.844 9.65814 14 9.0841 14 8.5C14 7.9159 13.844 7.34186 13.5392 6.88464C13.239 6.43441 12.7145 6 12 6C11.2855 6 10.761 6.43441 10.4608 6.88464C10.156 7.34186 10 7.9159 10 8.5C10 9.0841 10.156 9.65814 10.4608 10.1154C10.761 10.5656 11.2855 11 12 11Z" stroke="#ACABB4" stroke-width="2"/>
<path d="M7 17.5525C7 17.034 7.27683 16.5547 7.74085 16.3234C8.75559 15.8174 10.6101 15 12 15C13.3899 15 15.2444 15.8174 16.2592 16.3234C16.7232 16.5547 17 17.034 17 17.5525V17.5525C17 18.3519 16.3519 19 15.5525 19H8.44748C7.64806 19 7 18.3519 7 17.5525V17.5525Z" stroke="#ACABB4" stroke-width="2"/>
</svg>
