<svg xmlns="http://www.w3.org/2000/svg" width="24" height="24" viewBox="0 0 24 24" fill="none">
    <path d="M11.5194 6.48721C11.6579 6.00445 12.3421 6.00444 12.4806 6.48721L13.3612 9.55574C13.5511 10.2174 14.1671 10.6649 14.855 10.6411L18.0455 10.5304C18.5475 10.5129 18.7589 11.1636 18.3425 11.4445L15.6963 13.2303C15.1257 13.6154 14.8904 14.3394 15.1257 14.9864L16.2169 17.9865C16.3886 18.4585 15.8352 18.8606 15.4393 18.5514L12.9232 16.5866C12.3807 16.1629 11.6193 16.1629 11.0768 16.5866L8.56069 18.5515C8.16484 18.8606 7.61139 18.4585 7.78306 17.9865L8.87426 14.9864C9.10956 14.3394 8.8743 13.6153 8.30367 13.2303L5.65746 11.4445C5.24113 11.1636 5.45253 10.5129 5.95448 10.5304L9.14496 10.6411C9.83295 10.6649 10.4489 10.2174 10.6388 9.55574L11.5194 6.48721Z" fill="#797882" stroke="#797882"/>
    <path d="M19 2L19.8103 4.18973L22 5L19.8103 5.81027L19 8L18.1897 5.81027L16 5L18.1897 4.18973L19 2Z" fill="#797882"/>
    <path d="M3 15L3.54018 16.4598L5 17L3.54018 17.5402L3 19L2.45982 17.5402L1 17L2.45982 16.4598L3 15Z" fill="#797882"/>
</svg>